<?xml version="1.0" encoding="utf-8"?>
<!-- Generator: Adobe Illustrator 18.1.1, SVG Export Plug-In . SVG Version: 6.00 Build 0)  -->
<!DOCTYPE svg PUBLIC "-//W3C//DTD SVG 1.1//EN" "http://www.w3.org/Graphics/SVG/1.1/DTD/svg11.dtd">
<svg version="1.1" id="Layer_1" xmlns="http://www.w3.org/2000/svg" xmlns:xlink="http://www.w3.org/1999/xlink" x="0px" y="0px"
	 viewBox="0 0 124.7 31.5" enable-background="new 0 0 124.7 31.5" xml:space="preserve">
<g id="XMLID_12_">
	<path id="XMLID_29_" fill="#007EE5" d="M0,1.4h8.4c7.2,0,11.7,4.6,11.7,11.9S15.6,25.1,8.4,25.1H0V1.4z M8.2,20.8
		c4.5,0,7-2.9,7-7.5c0-4.6-2.5-7.5-7-7.5H4.9v15H8.2z"/>
	<path id="XMLID_27_" fill="#007EE5" d="M32.8,12.6c-0.7-0.4-1.5-0.6-2.4-0.6c-1.6,0-2.9,0.8-3.3,2.4v10.7h-4.8V7.8h4.8v1.7
		c0.7-1.2,2.2-2.1,3.9-2.1c0.8,0,1.5,0.2,1.8,0.3V12.6z"/>
	<path id="XMLID_24_" fill="#007EE5" d="M42.4,25.5c-5,0-8.5-3.7-8.5-9c0-5.3,3.4-9,8.5-9c5,0,8.5,3.7,8.5,9
		C50.9,21.8,47.4,25.5,42.4,25.5z M42.4,11.5c-2.4,0-3.7,2.1-3.7,5c0,2.9,1.3,4.9,3.7,4.9c2.4,0,3.7-2.1,3.7-4.9
		C46.1,13.6,44.8,11.5,42.4,11.5z"/>
	<path id="XMLID_21_" fill="#007EE5" d="M57.7,31.5h-4.8V7.8h4.8v1.4c0.8-0.9,2.5-1.8,4.3-1.8c5,0,7.9,4.2,7.9,9c0,4.9-2.9,9-7.9,9
		c-1.9,0-3.6-0.9-4.3-1.8V31.5z M57.7,19.3c0.6,1.2,1.9,2,3.2,2c2.6,0,4.1-2.1,4.1-4.8c0-2.8-1.5-4.9-4.1-4.9c-1.4,0-2.7,0.9-3.2,2
		V19.3z"/>
	<path id="XMLID_18_" fill="#007EE5" d="M76.8,25.1H72V0h4.8v9.3c0.8-0.9,2.5-1.8,4.3-1.8c5,0,7.8,4.1,7.8,9s-2.8,9-7.8,9
		c-1.9,0-3.6-0.9-4.3-1.8V25.1z M76.8,19.3c0.5,1.2,1.8,2,3.2,2c2.6,0,4.1-2.1,4.1-4.8c0-2.8-1.5-4.9-4.1-4.9c-1.4,0-2.7,0.9-3.2,2
		V19.3z"/>
	<path id="XMLID_15_" fill="#007EE5" d="M99.2,25.6c-5,0-8.5-3.7-8.5-9c0-5.3,3.4-9,8.5-9c5,0,8.5,3.7,8.5,9
		C107.6,21.9,104.2,25.6,99.2,25.6z M99.2,11.6c-2.4,0-3.7,2.1-3.7,5c0,2.9,1.3,4.9,3.7,4.9c2.4,0,3.7-2.1,3.7-4.9
		C102.9,13.7,101.6,11.6,99.2,11.6z"/>
	<path id="XMLID_13_" fill="#007EE5" d="M118.4,16.2l6.3,8.9h-5.3l-3.7-5.4l-3.8,5.4h-5l6.2-8.8l-5.9-8.5h5.3l3.3,4.9l3.4-4.9h5
		L118.4,16.2z"/>
</g>
<g id="XMLID_6_" display="none">
	<polygon id="XMLID_11_" display="inline" fill="#007EE5" points="-36.1,-6.5 -48.6,1.6 -40,8.6 -27.4,0.8 	"/>
	<polygon id="XMLID_10_" display="inline" fill="#007EE5" points="-48.6,15.4 -36.1,23.6 -27.4,16.4 -40,8.6 	"/>
	<polygon id="XMLID_9_" display="inline" fill="#007EE5" points="-27.4,16.4 -18.7,23.6 -6.2,15.5 -14.8,8.6 	"/>
	<polygon id="XMLID_8_" display="inline" fill="#007EE5" points="-6.2,1.7 -18.7,-6.5 -27.4,0.8 -14.8,8.6 	"/>
	<polygon id="XMLID_7_" display="inline" fill="#007EE5" points="-27.4,17.9 -36.1,25.2 -39.9,22.7 -39.9,25.5 -27.4,33 -14.9,25.5 
		-14.9,22.7 -18.6,25.2 	"/>
</g>
<g>
</g>
<g>
</g>
<g>
</g>
<g>
</g>
<g>
</g>
<g>
</g>
</svg>
